<svg xmlns="http://www.w3.org/2000/svg" version="1.1" xmlns:xlink="http://www.w3.org/1999/xlink" xmlns:svgjs="http://svgjs.dev/svgjs" width="2000" height="363" viewBox="0 0 2000 363"><g transform="matrix(1,0,0,1,-1.2121212121212466,0.6336848346666955)"><svg viewBox="0 0 396 72" data-background-color="#ffffff" preserveAspectRatio="xMidYMid meet" height="363" width="2000" xmlns="http://www.w3.org/2000/svg" xmlns:xlink="http://www.w3.org/1999/xlink"><g id="tight-bounds" transform="matrix(1,0,0,1,0.2400000000000091,-0.12568955398347725)"><svg viewBox="0 0 395.52 72.25137910796697" height="72.25137910796697" width="395.52"><g><svg viewBox="0 0 494.28872255266003 90.2938963439142" height="72.25137910796697" width="395.52"><g transform="matrix(1,0,0,1,98.76872255266002,27.19758820155384)"><svg viewBox="0 0 395.52 35.898719940806515" height="35.898719940806515" width="395.52"><g id="textblocktransform"><svg viewBox="0 0 395.52 35.898719940806515" height="35.898719940806515" width="395.52" id="textblock"><g><svg viewBox="0 0 395.52 35.898719940806515" height="35.898719940806515" width="395.52"><g transform="matrix(1,0,0,1,0,0)"><svg width="395.52" viewBox="0.8 -36.3 405.42 36.8" height="35.898719940806515" data-palette-color="#001f3f"><g class="wordmark-text-0" data-fill-palette-color="primary" id="text-0"><path d="M19.1 0L15.05 0Q12.05 0 10-1.05 7.95-2.1 6.95-4.17 5.95-6.25 5.95-9.35L5.95-9.35 5.95-20.7 2-20.7Q1.5-20.7 1.15-21.05 0.8-21.4 0.8-21.95L0.8-21.95 0.8-24.8Q0.8-25.3 1.15-25.65 1.5-26 2-26L2-26 5.95-26 5.95-34.3Q5.95-34.8 6.28-35.15 6.6-35.5 7.15-35.5L7.15-35.5 11.2-35.5Q11.7-35.5 12.05-35.15 12.4-34.8 12.4-34.3L12.4-34.3 12.4-26 18.65-26Q19.15-26 19.5-25.65 19.85-25.3 19.85-24.8L19.85-24.8 19.85-21.95Q19.85-21.4 19.5-21.05 19.15-20.7 18.65-20.7L18.65-20.7 12.4-20.7 12.4-9.85Q12.4-7.8 13.13-6.65 13.85-5.5 15.65-5.5L15.65-5.5 19.1-5.5Q19.6-5.5 19.95-5.15 20.3-4.8 20.3-4.3L20.3-4.3 20.3-1.2Q20.3-0.7 19.95-0.35 19.6 0 19.1 0L19.1 0ZM30.1 0L25.95 0Q25.45 0 25.1-0.35 24.75-0.7 24.75-1.2L24.75-1.2 24.75-24.8Q24.75-25.3 25.1-25.65 25.45-26 25.95-26L25.95-26 30.1-26Q30.65-26 30.97-25.65 31.3-25.3 31.3-24.8L31.3-24.8 31.3-1.2Q31.3-0.7 30.97-0.35 30.65 0 30.1 0L30.1 0ZM30.3-30.3L25.75-30.3Q25.25-30.3 24.9-30.65 24.55-31 24.55-31.5L24.55-31.5 24.55-35.1Q24.55-35.6 24.9-35.95 25.25-36.3 25.75-36.3L25.75-36.3 30.3-36.3Q30.85-36.3 31.2-35.95 31.55-35.6 31.55-35.1L31.55-35.1 31.55-31.5Q31.55-31 31.2-30.65 30.85-30.3 30.3-30.3L30.3-30.3ZM43.35 0L39.15 0Q38.65 0 38.3-0.35 37.95-0.7 37.95-1.2L37.95-1.2 37.95-24.8Q37.95-25.3 38.3-25.65 38.65-26 39.15-26L39.15-26 43.05-26Q43.55-26 43.9-25.65 44.25-25.3 44.25-24.8L44.25-24.8 44.25-23.1Q45.3-24.5 47.07-25.48 48.85-26.45 51.3-26.5L51.3-26.5Q57-26.6 59.25-22.05L59.25-22.05Q60.4-24.05 62.57-25.28 64.75-26.5 67.4-26.5L67.4-26.5Q70-26.5 72.12-25.3 74.25-24.1 75.47-21.68 76.7-19.25 76.7-15.55L76.7-15.55 76.7-1.2Q76.7-0.7 76.34-0.35 76 0 75.5 0L75.5 0 71.4 0Q70.9 0 70.55-0.35 70.2-0.7 70.2-1.2L70.2-1.2 70.2-15.15Q70.2-17.4 69.55-18.73 68.9-20.05 67.8-20.6 66.7-21.15 65.34-21.15L65.34-21.15Q64.25-21.15 63.15-20.6 62.05-20.05 61.35-18.73 60.65-17.4 60.65-15.15L60.65-15.15 60.65-1.2Q60.65-0.7 60.3-0.35 59.95 0 59.45 0L59.45 0 55.35 0Q54.85 0 54.5-0.35 54.15-0.7 54.15-1.2L54.15-1.2 54.15-15.15Q54.15-17.4 53.45-18.73 52.75-20.05 51.65-20.6 50.55-21.15 49.3-21.15L49.3-21.15Q48.15-21.15 47.05-20.58 45.95-20 45.25-18.7 44.55-17.4 44.55-15.15L44.55-15.15 44.55-1.2Q44.55-0.7 44.2-0.35 43.85 0 43.35 0L43.35 0ZM94.24 0.5L94.24 0.5Q88.69 0.5 85.44-2.7 82.19-5.9 81.94-11.8L81.94-11.8Q81.89-12.3 81.89-13.08 81.89-13.85 81.94-14.3L81.94-14.3Q82.14-18.1 83.67-20.83 85.19-23.55 87.89-25.03 90.59-26.5 94.24-26.5L94.24-26.5Q98.29-26.5 101.04-24.83 103.79-23.15 105.19-20.18 106.59-17.2 106.59-13.3L106.59-13.3 106.59-12.25Q106.59-11.75 106.24-11.4 105.89-11.05 105.34-11.05L105.34-11.05 88.74-11.05Q88.74-11.05 88.74-10.9 88.74-10.75 88.74-10.65L88.74-10.65Q88.79-8.9 89.42-7.43 90.04-5.95 91.27-5.05 92.49-4.15 94.19-4.15L94.19-4.15Q95.59-4.15 96.54-4.58 97.49-5 98.09-5.55 98.69-6.1 98.94-6.45L98.94-6.45Q99.39-7.05 99.67-7.18 99.94-7.3 100.49-7.3L100.49-7.3 104.79-7.3Q105.29-7.3 105.62-7 105.94-6.7 105.89-6.25L105.89-6.25Q105.84-5.45 105.07-4.3 104.29-3.15 102.84-2.05 101.39-0.95 99.22-0.23 97.04 0.5 94.24 0.5ZM88.74-15.4L88.74-15.25 99.79-15.25 99.79-15.4Q99.79-17.35 99.14-18.82 98.49-20.3 97.24-21.13 95.99-21.95 94.24-21.95L94.24-21.95Q92.49-21.95 91.24-21.13 89.99-20.3 89.37-18.82 88.74-17.35 88.74-15.4L88.74-15.4ZM121.74 0.5L121.74 0.5Q118.74 0.5 116.62-0.2 114.49-0.9 113.14-1.95 111.79-3 111.14-4.05 110.49-5.1 110.44-5.8L110.44-5.8Q110.39-6.35 110.77-6.68 111.14-7 111.59-7L111.59-7 115.54-7Q115.74-7 115.89-6.95 116.04-6.9 116.29-6.65L116.29-6.65Q116.94-6.1 117.67-5.5 118.39-4.9 119.39-4.48 120.39-4.05 121.89-4.05L121.89-4.05Q123.84-4.05 125.17-4.83 126.49-5.6 126.49-7.05L126.49-7.05Q126.49-8.1 125.92-8.75 125.34-9.4 123.79-9.93 122.24-10.45 119.39-11.05L119.39-11.05Q116.59-11.7 114.74-12.7 112.89-13.7 111.99-15.2 111.09-16.7 111.09-18.7L111.09-18.7Q111.09-20.65 112.27-22.43 113.44-24.2 115.77-25.35 118.09-26.5 121.54-26.5L121.54-26.5Q124.24-26.5 126.24-25.83 128.24-25.15 129.56-24.15 130.89-23.15 131.59-22.13 132.29-21.1 132.34-20.35L132.34-20.35Q132.39-19.8 132.04-19.48 131.69-19.15 131.24-19.15L131.24-19.15 127.54-19.15Q127.29-19.15 127.09-19.25 126.89-19.35 126.69-19.5L126.69-19.5Q126.14-20 125.49-20.58 124.84-21.15 123.92-21.55 122.99-21.95 121.49-21.95L121.49-21.95Q119.59-21.95 118.59-21.13 117.59-20.3 117.59-19.05L117.59-19.05Q117.59-18.2 118.06-17.57 118.54-16.95 119.99-16.4 121.44-15.85 124.39-15.25L124.39-15.25Q127.74-14.65 129.72-13.48 131.69-12.3 132.52-10.78 133.34-9.25 133.34-7.4L133.34-7.4Q133.34-5.15 132.02-3.35 130.69-1.55 128.12-0.53 125.54 0.5 121.74 0.5ZM143.89 0L139.74 0Q139.24 0 138.89-0.35 138.54-0.7 138.54-1.2L138.54-1.2 138.54-34.3Q138.54-34.8 138.89-35.15 139.24-35.5 139.74-35.5L139.74-35.5 143.89-35.5Q144.39-35.5 144.74-35.15 145.09-34.8 145.09-34.3L145.09-34.3 145.09-1.2Q145.09-0.7 144.74-0.35 144.39 0 143.89 0L143.89 0ZM163.24 0.5L163.24 0.5Q159.24 0.5 156.51-0.9 153.78-2.3 152.36-4.85 150.94-7.4 150.74-10.8L150.74-10.8Q150.69-11.7 150.69-13 150.69-14.3 150.74-15.2L150.74-15.2Q150.94-18.65 152.41-21.18 153.88-23.7 156.61-25.1 159.34-26.5 163.24-26.5L163.24-26.5Q167.13-26.5 169.86-25.1 172.59-23.7 174.06-21.18 175.53-18.65 175.74-15.2L175.74-15.2Q175.78-14.3 175.78-13 175.78-11.7 175.74-10.8L175.74-10.8Q175.53-7.4 174.11-4.85 172.69-2.3 169.96-0.9 167.24 0.5 163.24 0.5ZM163.24-4.45L163.24-4.45Q165.88-4.45 167.34-6.13 168.78-7.8 168.94-11.05L168.94-11.05Q168.99-11.8 168.99-13 168.99-14.2 168.94-14.95L168.94-14.95Q168.78-18.2 167.34-19.88 165.88-21.55 163.24-21.55L163.24-21.55Q160.59-21.55 159.13-19.88 157.69-18.2 157.53-14.95L157.53-14.95Q157.49-14.2 157.49-13 157.49-11.8 157.53-11.05L157.53-11.05Q157.69-7.8 159.13-6.13 160.59-4.45 163.24-4.45ZM197.13 0L193.08 0Q190.08 0 188.03-1.05 185.98-2.1 184.98-4.17 183.98-6.25 183.98-9.35L183.98-9.35 183.98-20.7 180.03-20.7Q179.53-20.7 179.18-21.05 178.83-21.4 178.83-21.95L178.83-21.95 178.83-24.8Q178.83-25.3 179.18-25.65 179.53-26 180.03-26L180.03-26 183.98-26 183.98-34.3Q183.98-34.8 184.31-35.15 184.63-35.5 185.18-35.5L185.18-35.5 189.23-35.5Q189.73-35.5 190.08-35.15 190.43-34.8 190.43-34.3L190.43-34.3 190.43-26 196.68-26Q197.18-26 197.53-25.65 197.88-25.3 197.88-24.8L197.88-24.8 197.88-21.95Q197.88-21.4 197.53-21.05 197.18-20.7 196.68-20.7L196.68-20.7 190.43-20.7 190.43-9.85Q190.43-7.8 191.16-6.65 191.88-5.5 193.68-5.5L193.68-5.5 197.13-5.5Q197.63-5.5 197.98-5.15 198.33-4.8 198.33-4.3L198.33-4.3 198.33-1.2Q198.33-0.7 197.98-0.35 197.63 0 197.13 0L197.13 0ZM208.48 0L204.03 0Q203.53 0 203.18-0.35 202.83-0.7 202.83-1.2L202.83-1.2 202.83-34.3Q202.83-34.8 203.18-35.15 203.53-35.5 204.03-35.5L204.03-35.5 208.48-35.5Q209.03-35.5 209.36-35.15 209.68-34.8 209.68-34.3L209.68-34.3 209.68-22.9Q211.03-24.5 212.98-25.5 214.93-26.5 217.78-26.5L217.78-26.5Q220.83-26.5 223.11-25.13 225.38-23.75 226.63-21.25 227.88-18.75 227.88-15.25L227.88-15.25 227.88-1.2Q227.88-0.7 227.53-0.35 227.18 0 226.68 0L226.68 0 222.18 0Q221.68 0 221.33-0.35 220.98-0.7 220.98-1.2L220.98-1.2 220.98-14.95Q220.98-17.85 219.56-19.5 218.13-21.15 215.43-21.15L215.43-21.15Q212.83-21.15 211.26-19.5 209.68-17.85 209.68-14.95L209.68-14.95 209.68-1.2Q209.68-0.7 209.36-0.35 209.03 0 208.48 0L208.48 0ZM243.88 0.5L243.88 0.5Q240.83 0.5 238.6-0.88 236.38-2.25 235.18-4.78 233.98-7.3 233.98-10.75L233.98-10.75 233.98-24.8Q233.98-25.3 234.33-25.65 234.68-26 235.18-26L235.18-26 239.58-26Q240.13-26 240.45-25.65 240.78-25.3 240.78-24.8L240.78-24.8 240.78-11.05Q240.78-4.85 246.23-4.85L246.23-4.85Q248.83-4.85 250.35-6.5 251.88-8.15 251.88-11.05L251.88-11.05 251.88-24.8Q251.88-25.3 252.23-25.65 252.58-26 253.08-26L253.08-26 257.48-26Q257.98-26 258.33-25.65 258.68-25.3 258.68-24.8L258.68-24.8 258.68-1.2Q258.68-0.7 258.33-0.35 257.98 0 257.48 0L257.48 0 253.43 0Q252.88 0 252.55-0.35 252.23-0.7 252.23-1.2L252.23-1.2 252.23-3.25Q250.88-1.5 248.88-0.5 246.88 0.5 243.88 0.5ZM279.68 0.5L279.68 0.5Q276.78 0.5 274.85-0.5 272.93-1.5 271.68-3.05L271.68-3.05 271.68-1.2Q271.68-0.7 271.35-0.35 271.03 0 270.48 0L270.48 0 266.53 0Q266.03 0 265.68-0.35 265.33-0.7 265.33-1.2L265.33-1.2 265.33-34.3Q265.33-34.8 265.68-35.15 266.03-35.5 266.53-35.5L266.53-35.5 270.78-35.5Q271.33-35.5 271.65-35.15 271.98-34.8 271.98-34.3L271.98-34.3 271.98-23.2Q273.23-24.65 275.1-25.58 276.98-26.5 279.68-26.5L279.68-26.5Q282.33-26.5 284.28-25.6 286.23-24.7 287.55-23.08 288.88-21.45 289.58-19.3 290.28-17.15 290.33-14.65L290.33-14.65Q290.38-13.75 290.38-13.03 290.38-12.3 290.33-11.4L290.33-11.4Q290.23-8.8 289.53-6.63 288.83-4.45 287.53-2.85 286.23-1.25 284.28-0.38 282.33 0.5 279.68 0.5ZM277.83-4.85L277.83-4.85Q279.98-4.85 281.18-5.78 282.38-6.7 282.93-8.2 283.48-9.7 283.58-11.5L283.58-11.5Q283.63-13 283.58-14.5L283.58-14.5Q283.48-16.3 282.93-17.8 282.38-19.3 281.18-20.23 279.98-21.15 277.83-21.15L277.83-21.15Q275.83-21.15 274.58-20.25 273.33-19.35 272.68-17.98 272.03-16.6 271.98-15.1L271.98-15.1Q271.93-14.2 271.93-13.18 271.93-12.15 271.98-11.25L271.98-11.25Q272.08-9.7 272.65-8.22 273.23-6.75 274.5-5.8 275.78-4.85 277.83-4.85ZM301.82 0L296.82 0Q296.32 0 295.97-0.35 295.62-0.7 295.62-1.2L295.62-1.2 295.62-6.15Q295.62-6.7 295.97-7.05 296.32-7.4 296.82-7.4L296.82-7.4 301.82-7.4Q302.32-7.4 302.67-7.05 303.02-6.7 303.02-6.15L303.02-6.15 303.02-1.2Q303.02-0.7 302.67-0.35 302.32 0 301.82 0L301.82 0ZM320.57 0.5L320.57 0.5Q316.97 0.5 314.25-0.85 311.52-2.2 310-4.78 308.47-7.35 308.32-11L308.32-11Q308.27-11.75 308.27-12.98 308.27-14.2 308.32-15L308.32-15Q308.47-18.65 310-21.23 311.52-23.8 314.25-25.15 316.97-26.5 320.57-26.5L320.57-26.5Q323.77-26.5 326.02-25.63 328.27-24.75 329.72-23.38 331.17-22 331.89-20.53 332.62-19.05 332.67-17.85L332.67-17.85Q332.72-17.3 332.34-16.98 331.97-16.65 331.47-16.65L331.47-16.65 327.07-16.65Q326.57-16.65 326.29-16.9 326.02-17.15 325.77-17.65L325.77-17.65Q325.02-19.65 323.79-20.48 322.57-21.3 320.67-21.3L320.67-21.3Q318.17-21.3 316.69-19.73 315.22-18.15 315.12-14.75L315.12-14.75Q315.02-12.85 315.12-11.25L315.12-11.25Q315.22-7.8 316.69-6.25 318.17-4.7 320.67-4.7L320.67-4.7Q322.62-4.7 323.82-5.53 325.02-6.35 325.77-8.35L325.77-8.35Q326.02-8.85 326.29-9.1 326.57-9.35 327.07-9.35L327.07-9.35 331.47-9.35Q331.97-9.35 332.34-9.03 332.72-8.7 332.67-8.15L332.67-8.15Q332.62-7.25 332.19-6.13 331.77-5 330.84-3.83 329.92-2.65 328.52-1.68 327.12-0.7 325.14-0.1 323.17 0.5 320.57 0.5ZM349.37 0.5L349.37 0.5Q345.37 0.5 342.64-0.9 339.92-2.3 338.49-4.85 337.07-7.4 336.87-10.8L336.87-10.8Q336.82-11.7 336.82-13 336.82-14.3 336.87-15.2L336.87-15.2Q337.07-18.65 338.54-21.18 340.02-23.7 342.74-25.1 345.47-26.5 349.37-26.5L349.37-26.5Q353.27-26.5 355.99-25.1 358.72-23.7 360.19-21.18 361.67-18.65 361.87-15.2L361.87-15.2Q361.92-14.3 361.92-13 361.92-11.7 361.87-10.8L361.87-10.8Q361.67-7.4 360.24-4.85 358.82-2.3 356.09-0.9 353.37 0.5 349.37 0.5ZM349.37-4.45L349.37-4.45Q352.02-4.45 353.47-6.13 354.92-7.8 355.07-11.05L355.07-11.05Q355.12-11.8 355.12-13 355.12-14.2 355.07-14.95L355.07-14.95Q354.92-18.2 353.47-19.88 352.02-21.55 349.37-21.55L349.37-21.55Q346.72-21.55 345.27-19.88 343.82-18.2 343.67-14.95L343.67-14.95Q343.62-14.2 343.62-13 343.62-11.8 343.67-11.05L343.67-11.05Q343.82-7.8 345.27-6.13 346.72-4.45 349.37-4.45ZM372.87 0L368.67 0Q368.17 0 367.81-0.35 367.47-0.7 367.47-1.2L367.47-1.2 367.47-24.8Q367.47-25.3 367.81-25.65 368.17-26 368.67-26L368.67-26 372.56-26Q373.06-26 373.42-25.65 373.77-25.3 373.77-24.8L373.77-24.8 373.77-23.1Q374.81-24.5 376.59-25.48 378.37-26.45 380.81-26.5L380.81-26.5Q386.52-26.6 388.77-22.05L388.77-22.05Q389.92-24.05 392.09-25.28 394.27-26.5 396.92-26.5L396.92-26.5Q399.52-26.5 401.64-25.3 403.77-24.1 404.99-21.68 406.22-19.25 406.22-15.55L406.22-15.55 406.22-1.2Q406.22-0.7 405.87-0.35 405.52 0 405.02 0L405.02 0 400.92 0Q400.42 0 400.06-0.35 399.72-0.7 399.72-1.2L399.72-1.2 399.72-15.15Q399.72-17.4 399.06-18.73 398.42-20.05 397.31-20.6 396.22-21.15 394.87-21.15L394.87-21.15Q393.77-21.15 392.67-20.6 391.56-20.05 390.87-18.73 390.17-17.4 390.17-15.15L390.17-15.15 390.17-1.2Q390.17-0.7 389.81-0.35 389.47 0 388.97 0L388.97 0 384.87 0Q384.37 0 384.02-0.35 383.67-0.7 383.67-1.2L383.67-1.2 383.67-15.15Q383.67-17.4 382.97-18.73 382.27-20.05 381.17-20.6 380.06-21.15 378.81-21.15L378.81-21.15Q377.67-21.15 376.56-20.58 375.47-20 374.77-18.7 374.06-17.4 374.06-15.15L374.06-15.15 374.06-1.2Q374.06-0.7 373.72-0.35 373.37 0 372.87 0L372.87 0Z" fill="#001f3f" data-fill-palette-color="primary"></path></g></svg></g></svg></g></svg></g></svg></g><g><svg viewBox="0 0 90.29389634391418 90.2938963439142" height="90.2938963439142" width="90.29389634391418"><g><svg></svg></g><g id="icon-0"><svg viewBox="0 0 90.29389634391418 90.2938963439142" height="90.2938963439142" width="90.29389634391418"><g></g><g transform="matrix(1,0,0,1,18.058779268782835,18.05999671457624)"><svg viewBox="0 0 54.17633780634851 54.17390291476172" height="54.17390291476172" width="54.17633780634851"><g><svg xmlns="http://www.w3.org/2000/svg" xmlns:xlink="http://www.w3.org/1999/xlink" version="1.1" x="0" y="0" viewBox="5.5 5.502 89 88.99600000000001" enable-background="new 0 0 100 100" xml:space="preserve" height="54.17390291476172" width="54.17633780634851" class="icon-cg-0" data-fill-palette-color="quaternary" id="cg-0"><g fill="#000000" data-fill-palette-color="quaternary"><path d="M50.001 14.146c-19.771 0-35.858 16.084-35.858 35.854S30.23 85.854 50.001 85.854c19.769 0 35.856-16.085 35.856-35.854S69.77 14.146 50.001 14.146M50.001 94.498C25.463 94.498 5.5 74.535 5.5 49.999S25.463 5.502 50.001 5.502c24.537 0 44.499 19.961 44.499 44.497S74.538 94.498 50.001 94.498" fill="#000000" data-fill-palette-color="quaternary"></path></g><polygon points="50.841,59.557 28.415,38.984 34.258,32.615 49.163,46.286 63.979,23.526 71.225,28.242 " fill="#000000" data-fill-palette-color="quaternary"></polygon></svg></g></svg></g></svg></g></svg></g></svg></g><defs></defs><mask id="b67c0b3b-5e2f-4ea0-8c4e-bcec82ce92bb"><g id="SvgjsG2184"><svg viewBox="0 0 395.52 72.25137910796697" height="72.25137910796697" width="395.52"><g><svg viewBox="0 0 494.28872255266003 90.2938963439142" height="72.25137910796697" width="395.52"><g transform="matrix(1,0,0,1,98.76872255266002,27.19758820155384)"><svg viewBox="0 0 395.52 35.898719940806515" height="35.898719940806515" width="395.52"><g id="SvgjsG2183"><svg viewBox="0 0 395.52 35.898719940806515" height="35.898719940806515" width="395.52" id="SvgjsSvg2182"><g><svg viewBox="0 0 395.52 35.898719940806515" height="35.898719940806515" width="395.52"><g transform="matrix(1,0,0,1,0,0)"><svg width="395.52" viewBox="0.8 -36.3 405.42 36.8" height="35.898719940806515" data-palette-color="#001f3f"><g class="wordmark-text-0" data-fill-palette-color="primary" id="SvgjsG2181"><path d="M19.1 0L15.05 0Q12.05 0 10-1.05 7.95-2.1 6.95-4.17 5.95-6.25 5.95-9.35L5.95-9.35 5.95-20.7 2-20.7Q1.5-20.7 1.15-21.05 0.8-21.4 0.8-21.95L0.8-21.95 0.8-24.8Q0.8-25.3 1.15-25.65 1.5-26 2-26L2-26 5.95-26 5.95-34.3Q5.95-34.8 6.28-35.15 6.6-35.5 7.15-35.5L7.15-35.5 11.2-35.5Q11.7-35.5 12.05-35.15 12.4-34.8 12.4-34.3L12.4-34.3 12.4-26 18.65-26Q19.15-26 19.5-25.65 19.85-25.3 19.85-24.8L19.85-24.8 19.85-21.95Q19.85-21.4 19.5-21.05 19.15-20.7 18.65-20.7L18.65-20.7 12.4-20.7 12.4-9.85Q12.4-7.8 13.13-6.65 13.85-5.5 15.65-5.5L15.65-5.5 19.1-5.5Q19.6-5.5 19.95-5.15 20.3-4.8 20.3-4.3L20.3-4.3 20.3-1.2Q20.3-0.7 19.95-0.35 19.6 0 19.1 0L19.1 0ZM30.1 0L25.95 0Q25.45 0 25.1-0.35 24.75-0.7 24.75-1.2L24.75-1.2 24.75-24.8Q24.75-25.3 25.1-25.65 25.45-26 25.95-26L25.95-26 30.1-26Q30.65-26 30.97-25.65 31.3-25.3 31.3-24.8L31.3-24.8 31.3-1.2Q31.3-0.7 30.97-0.35 30.65 0 30.1 0L30.1 0ZM30.3-30.3L25.75-30.3Q25.25-30.3 24.9-30.65 24.55-31 24.55-31.5L24.55-31.5 24.55-35.1Q24.55-35.6 24.9-35.95 25.25-36.3 25.75-36.3L25.75-36.3 30.3-36.3Q30.85-36.3 31.2-35.95 31.55-35.6 31.55-35.1L31.55-35.1 31.55-31.5Q31.55-31 31.2-30.65 30.85-30.3 30.3-30.3L30.3-30.3ZM43.35 0L39.15 0Q38.65 0 38.3-0.35 37.95-0.7 37.95-1.2L37.95-1.2 37.95-24.8Q37.95-25.3 38.3-25.65 38.65-26 39.15-26L39.15-26 43.05-26Q43.55-26 43.9-25.65 44.25-25.3 44.25-24.8L44.25-24.8 44.25-23.1Q45.3-24.5 47.07-25.48 48.85-26.45 51.3-26.5L51.3-26.5Q57-26.6 59.25-22.05L59.25-22.05Q60.4-24.05 62.57-25.28 64.75-26.5 67.4-26.5L67.4-26.5Q70-26.5 72.12-25.3 74.25-24.1 75.47-21.68 76.7-19.25 76.7-15.55L76.7-15.55 76.7-1.2Q76.7-0.7 76.34-0.35 76 0 75.5 0L75.5 0 71.4 0Q70.9 0 70.55-0.35 70.2-0.7 70.2-1.2L70.2-1.2 70.2-15.15Q70.2-17.4 69.55-18.73 68.9-20.05 67.8-20.6 66.7-21.15 65.34-21.15L65.34-21.15Q64.25-21.15 63.15-20.6 62.05-20.05 61.35-18.73 60.65-17.4 60.65-15.15L60.65-15.15 60.65-1.2Q60.65-0.7 60.3-0.35 59.95 0 59.45 0L59.45 0 55.35 0Q54.85 0 54.5-0.35 54.15-0.7 54.15-1.2L54.15-1.2 54.15-15.15Q54.15-17.4 53.45-18.73 52.75-20.05 51.65-20.6 50.55-21.15 49.3-21.15L49.3-21.15Q48.15-21.15 47.05-20.58 45.95-20 45.25-18.7 44.55-17.4 44.55-15.15L44.55-15.15 44.55-1.2Q44.55-0.7 44.2-0.35 43.85 0 43.35 0L43.35 0ZM94.24 0.5L94.24 0.5Q88.69 0.5 85.44-2.7 82.19-5.9 81.94-11.8L81.94-11.8Q81.89-12.3 81.89-13.08 81.89-13.85 81.94-14.3L81.94-14.3Q82.14-18.1 83.67-20.83 85.19-23.55 87.89-25.03 90.59-26.5 94.24-26.5L94.24-26.5Q98.29-26.5 101.04-24.83 103.79-23.15 105.19-20.18 106.59-17.2 106.59-13.3L106.59-13.3 106.59-12.25Q106.59-11.75 106.24-11.4 105.89-11.05 105.34-11.05L105.34-11.05 88.74-11.05Q88.74-11.05 88.74-10.9 88.74-10.75 88.74-10.65L88.74-10.65Q88.79-8.9 89.42-7.43 90.04-5.95 91.27-5.05 92.49-4.15 94.19-4.15L94.19-4.15Q95.59-4.15 96.54-4.58 97.49-5 98.09-5.55 98.69-6.1 98.94-6.45L98.94-6.45Q99.39-7.05 99.67-7.18 99.94-7.3 100.49-7.3L100.49-7.3 104.79-7.3Q105.29-7.3 105.62-7 105.94-6.7 105.89-6.25L105.89-6.25Q105.84-5.45 105.07-4.3 104.29-3.15 102.84-2.05 101.39-0.95 99.22-0.23 97.04 0.5 94.24 0.5ZM88.74-15.4L88.74-15.25 99.79-15.25 99.79-15.4Q99.79-17.35 99.14-18.82 98.49-20.3 97.24-21.13 95.99-21.95 94.24-21.95L94.24-21.95Q92.49-21.95 91.24-21.13 89.99-20.3 89.37-18.82 88.74-17.35 88.74-15.4L88.74-15.4ZM121.74 0.5L121.74 0.5Q118.74 0.5 116.62-0.2 114.49-0.9 113.14-1.95 111.79-3 111.14-4.05 110.49-5.1 110.44-5.8L110.44-5.8Q110.39-6.35 110.77-6.68 111.14-7 111.59-7L111.59-7 115.54-7Q115.74-7 115.89-6.95 116.04-6.9 116.29-6.65L116.29-6.65Q116.94-6.1 117.67-5.5 118.39-4.9 119.39-4.48 120.39-4.05 121.89-4.05L121.89-4.05Q123.84-4.05 125.17-4.83 126.49-5.6 126.49-7.05L126.49-7.05Q126.49-8.1 125.92-8.75 125.34-9.4 123.79-9.93 122.24-10.45 119.39-11.05L119.39-11.05Q116.59-11.7 114.74-12.7 112.89-13.7 111.99-15.2 111.09-16.7 111.09-18.7L111.09-18.7Q111.09-20.65 112.27-22.43 113.44-24.2 115.77-25.35 118.09-26.5 121.54-26.5L121.54-26.5Q124.24-26.5 126.24-25.83 128.24-25.15 129.56-24.15 130.89-23.15 131.59-22.13 132.29-21.1 132.34-20.35L132.34-20.35Q132.39-19.8 132.04-19.48 131.69-19.15 131.24-19.15L131.24-19.15 127.54-19.15Q127.29-19.15 127.09-19.25 126.89-19.35 126.69-19.5L126.69-19.5Q126.14-20 125.49-20.58 124.84-21.15 123.92-21.55 122.99-21.95 121.49-21.95L121.49-21.95Q119.59-21.95 118.59-21.13 117.59-20.3 117.59-19.05L117.59-19.05Q117.59-18.2 118.06-17.57 118.54-16.95 119.99-16.4 121.44-15.85 124.39-15.25L124.39-15.25Q127.74-14.65 129.72-13.48 131.69-12.3 132.52-10.78 133.34-9.25 133.34-7.4L133.34-7.4Q133.34-5.15 132.02-3.35 130.69-1.55 128.12-0.53 125.54 0.5 121.74 0.5ZM143.89 0L139.74 0Q139.24 0 138.89-0.35 138.54-0.7 138.54-1.2L138.54-1.2 138.54-34.3Q138.54-34.8 138.89-35.15 139.24-35.5 139.74-35.5L139.74-35.5 143.89-35.5Q144.39-35.5 144.74-35.15 145.09-34.8 145.09-34.3L145.09-34.3 145.09-1.2Q145.09-0.7 144.74-0.35 144.39 0 143.89 0L143.89 0ZM163.24 0.5L163.24 0.5Q159.24 0.5 156.51-0.9 153.78-2.3 152.36-4.85 150.94-7.4 150.74-10.8L150.74-10.8Q150.69-11.7 150.69-13 150.69-14.3 150.74-15.2L150.74-15.2Q150.94-18.65 152.41-21.18 153.88-23.7 156.61-25.1 159.34-26.5 163.24-26.5L163.24-26.5Q167.13-26.5 169.86-25.1 172.59-23.7 174.06-21.18 175.53-18.65 175.74-15.2L175.74-15.2Q175.78-14.3 175.78-13 175.78-11.7 175.74-10.8L175.74-10.8Q175.53-7.4 174.11-4.85 172.69-2.3 169.96-0.9 167.24 0.5 163.24 0.5ZM163.24-4.45L163.24-4.45Q165.88-4.45 167.34-6.13 168.78-7.8 168.94-11.05L168.94-11.05Q168.99-11.8 168.99-13 168.99-14.2 168.94-14.95L168.94-14.95Q168.78-18.2 167.34-19.88 165.88-21.55 163.24-21.55L163.24-21.55Q160.59-21.55 159.13-19.88 157.69-18.2 157.53-14.95L157.53-14.95Q157.49-14.2 157.49-13 157.49-11.8 157.53-11.05L157.53-11.05Q157.69-7.8 159.13-6.13 160.59-4.45 163.24-4.45ZM197.13 0L193.08 0Q190.08 0 188.03-1.05 185.98-2.1 184.98-4.17 183.98-6.25 183.98-9.35L183.98-9.35 183.98-20.7 180.03-20.7Q179.53-20.7 179.18-21.05 178.83-21.4 178.83-21.95L178.83-21.95 178.83-24.8Q178.83-25.3 179.18-25.65 179.53-26 180.03-26L180.03-26 183.98-26 183.98-34.3Q183.98-34.8 184.31-35.15 184.63-35.5 185.18-35.5L185.18-35.5 189.23-35.5Q189.73-35.5 190.08-35.15 190.43-34.8 190.43-34.3L190.43-34.3 190.43-26 196.68-26Q197.18-26 197.53-25.65 197.88-25.3 197.88-24.8L197.88-24.8 197.88-21.95Q197.88-21.4 197.53-21.05 197.18-20.7 196.68-20.7L196.68-20.7 190.43-20.7 190.43-9.85Q190.43-7.8 191.16-6.65 191.88-5.5 193.68-5.5L193.68-5.5 197.13-5.5Q197.63-5.5 197.98-5.15 198.33-4.8 198.33-4.3L198.33-4.3 198.33-1.2Q198.33-0.7 197.98-0.35 197.63 0 197.13 0L197.13 0ZM208.48 0L204.03 0Q203.53 0 203.18-0.35 202.83-0.7 202.83-1.2L202.83-1.2 202.83-34.3Q202.83-34.8 203.18-35.15 203.53-35.5 204.03-35.5L204.03-35.5 208.48-35.5Q209.03-35.5 209.36-35.15 209.68-34.8 209.68-34.3L209.68-34.3 209.68-22.9Q211.03-24.5 212.98-25.5 214.93-26.5 217.78-26.5L217.78-26.5Q220.83-26.5 223.11-25.13 225.38-23.75 226.63-21.25 227.88-18.75 227.88-15.25L227.88-15.25 227.88-1.2Q227.88-0.7 227.53-0.35 227.18 0 226.68 0L226.68 0 222.18 0Q221.68 0 221.33-0.35 220.98-0.7 220.98-1.2L220.98-1.2 220.98-14.95Q220.98-17.85 219.56-19.5 218.13-21.15 215.43-21.15L215.43-21.15Q212.83-21.15 211.26-19.5 209.68-17.85 209.68-14.95L209.68-14.95 209.68-1.2Q209.68-0.7 209.36-0.35 209.03 0 208.48 0L208.48 0ZM243.88 0.5L243.88 0.5Q240.83 0.5 238.6-0.88 236.38-2.25 235.18-4.78 233.98-7.3 233.98-10.75L233.98-10.75 233.98-24.8Q233.98-25.3 234.33-25.65 234.68-26 235.18-26L235.18-26 239.58-26Q240.13-26 240.45-25.65 240.78-25.3 240.78-24.8L240.78-24.8 240.78-11.05Q240.78-4.85 246.23-4.85L246.23-4.85Q248.83-4.85 250.35-6.5 251.88-8.15 251.88-11.05L251.88-11.05 251.88-24.8Q251.88-25.3 252.23-25.65 252.58-26 253.08-26L253.08-26 257.48-26Q257.98-26 258.33-25.65 258.68-25.3 258.68-24.8L258.68-24.8 258.68-1.2Q258.68-0.7 258.33-0.35 257.98 0 257.48 0L257.48 0 253.43 0Q252.88 0 252.55-0.35 252.23-0.7 252.23-1.2L252.23-1.2 252.23-3.25Q250.88-1.5 248.88-0.5 246.88 0.5 243.88 0.5ZM279.68 0.5L279.68 0.5Q276.78 0.5 274.85-0.5 272.93-1.5 271.68-3.05L271.68-3.05 271.68-1.2Q271.68-0.7 271.35-0.35 271.03 0 270.48 0L270.48 0 266.53 0Q266.03 0 265.68-0.35 265.33-0.7 265.33-1.2L265.33-1.2 265.33-34.3Q265.33-34.8 265.68-35.15 266.03-35.5 266.53-35.5L266.53-35.5 270.78-35.5Q271.33-35.5 271.65-35.15 271.98-34.8 271.98-34.3L271.98-34.3 271.98-23.2Q273.23-24.65 275.1-25.58 276.98-26.5 279.68-26.5L279.68-26.5Q282.33-26.5 284.28-25.6 286.23-24.7 287.55-23.08 288.88-21.45 289.58-19.3 290.28-17.15 290.33-14.65L290.33-14.65Q290.38-13.75 290.38-13.03 290.38-12.3 290.33-11.4L290.33-11.4Q290.23-8.8 289.53-6.63 288.83-4.45 287.53-2.85 286.23-1.25 284.28-0.38 282.33 0.5 279.68 0.5ZM277.83-4.85L277.83-4.85Q279.98-4.85 281.18-5.78 282.38-6.7 282.93-8.2 283.48-9.7 283.58-11.5L283.58-11.5Q283.63-13 283.58-14.5L283.58-14.5Q283.48-16.3 282.93-17.8 282.38-19.3 281.18-20.23 279.98-21.15 277.83-21.15L277.83-21.15Q275.83-21.15 274.58-20.25 273.33-19.35 272.68-17.98 272.03-16.6 271.98-15.1L271.98-15.1Q271.93-14.2 271.93-13.18 271.93-12.15 271.98-11.25L271.98-11.25Q272.08-9.7 272.65-8.22 273.23-6.75 274.5-5.8 275.78-4.85 277.83-4.85ZM301.82 0L296.82 0Q296.32 0 295.97-0.35 295.62-0.7 295.62-1.2L295.62-1.2 295.62-6.15Q295.62-6.7 295.97-7.05 296.32-7.4 296.82-7.4L296.82-7.4 301.82-7.4Q302.32-7.4 302.67-7.05 303.02-6.7 303.02-6.15L303.02-6.15 303.02-1.2Q303.02-0.7 302.67-0.35 302.32 0 301.82 0L301.82 0ZM320.57 0.5L320.57 0.5Q316.97 0.5 314.25-0.85 311.52-2.2 310-4.78 308.47-7.35 308.32-11L308.32-11Q308.27-11.75 308.27-12.98 308.27-14.2 308.32-15L308.32-15Q308.47-18.65 310-21.23 311.52-23.8 314.25-25.15 316.97-26.5 320.57-26.5L320.57-26.5Q323.77-26.5 326.02-25.63 328.27-24.75 329.72-23.38 331.17-22 331.89-20.53 332.62-19.05 332.67-17.85L332.67-17.85Q332.72-17.3 332.34-16.98 331.97-16.65 331.47-16.65L331.47-16.65 327.07-16.65Q326.57-16.65 326.29-16.9 326.02-17.15 325.77-17.65L325.77-17.65Q325.02-19.65 323.79-20.48 322.57-21.3 320.67-21.3L320.67-21.3Q318.17-21.3 316.69-19.73 315.22-18.15 315.12-14.75L315.12-14.75Q315.02-12.85 315.12-11.25L315.12-11.25Q315.22-7.8 316.69-6.25 318.17-4.7 320.67-4.7L320.67-4.7Q322.62-4.7 323.82-5.53 325.02-6.35 325.77-8.35L325.77-8.35Q326.02-8.85 326.29-9.1 326.57-9.35 327.07-9.35L327.07-9.35 331.47-9.35Q331.97-9.35 332.34-9.03 332.72-8.7 332.67-8.15L332.67-8.15Q332.62-7.25 332.19-6.13 331.77-5 330.84-3.83 329.92-2.65 328.52-1.68 327.12-0.7 325.14-0.1 323.17 0.5 320.57 0.5ZM349.37 0.5L349.37 0.5Q345.37 0.5 342.64-0.9 339.92-2.3 338.49-4.85 337.07-7.4 336.87-10.8L336.87-10.8Q336.82-11.7 336.82-13 336.82-14.3 336.87-15.2L336.87-15.2Q337.07-18.65 338.54-21.18 340.02-23.7 342.74-25.1 345.47-26.5 349.37-26.5L349.37-26.5Q353.27-26.5 355.99-25.1 358.72-23.7 360.19-21.18 361.67-18.65 361.87-15.2L361.87-15.2Q361.92-14.3 361.92-13 361.92-11.7 361.87-10.8L361.87-10.8Q361.67-7.4 360.24-4.85 358.82-2.3 356.09-0.9 353.37 0.5 349.37 0.5ZM349.37-4.45L349.37-4.45Q352.02-4.45 353.47-6.13 354.92-7.8 355.07-11.05L355.07-11.05Q355.12-11.8 355.12-13 355.12-14.2 355.07-14.95L355.07-14.95Q354.92-18.2 353.47-19.88 352.02-21.55 349.37-21.55L349.37-21.55Q346.72-21.55 345.27-19.88 343.82-18.2 343.67-14.95L343.67-14.95Q343.62-14.2 343.62-13 343.62-11.8 343.67-11.05L343.67-11.05Q343.82-7.8 345.27-6.13 346.72-4.45 349.37-4.45ZM372.87 0L368.67 0Q368.17 0 367.81-0.35 367.47-0.7 367.47-1.2L367.47-1.2 367.47-24.8Q367.47-25.3 367.81-25.65 368.17-26 368.67-26L368.67-26 372.56-26Q373.06-26 373.42-25.65 373.77-25.3 373.77-24.8L373.77-24.8 373.77-23.1Q374.81-24.5 376.59-25.48 378.37-26.45 380.81-26.5L380.81-26.5Q386.52-26.6 388.77-22.05L388.77-22.05Q389.92-24.05 392.09-25.28 394.27-26.5 396.92-26.5L396.92-26.5Q399.52-26.5 401.64-25.3 403.77-24.1 404.99-21.68 406.22-19.25 406.22-15.55L406.22-15.55 406.22-1.2Q406.22-0.7 405.87-0.35 405.52 0 405.02 0L405.02 0 400.92 0Q400.42 0 400.06-0.35 399.72-0.7 399.72-1.2L399.72-1.2 399.72-15.15Q399.72-17.4 399.06-18.73 398.42-20.05 397.31-20.6 396.22-21.15 394.87-21.15L394.87-21.15Q393.77-21.15 392.67-20.6 391.56-20.05 390.87-18.73 390.17-17.4 390.17-15.15L390.17-15.15 390.17-1.2Q390.17-0.7 389.81-0.35 389.47 0 388.97 0L388.97 0 384.87 0Q384.37 0 384.02-0.35 383.67-0.7 383.67-1.2L383.67-1.2 383.67-15.15Q383.67-17.4 382.97-18.73 382.27-20.05 381.17-20.6 380.06-21.15 378.81-21.15L378.81-21.15Q377.67-21.15 376.56-20.58 375.47-20 374.77-18.7 374.06-17.4 374.06-15.15L374.06-15.15 374.06-1.2Q374.06-0.7 373.72-0.35 373.37 0 372.87 0L372.87 0Z" fill="black"></path></g></svg></g></svg></g></svg></g></svg></g><g><svg viewBox="0 0 90.29389634391418 90.2938963439142" height="90.2938963439142" width="90.29389634391418"><g><svg></svg></g><g id="SvgjsG2180"><svg viewBox="0 0 90.29389634391418 90.2938963439142" height="90.2938963439142" width="90.29389634391418"><g><path transform="scale(0.90294,0.90294)" d="M30 100c-16.569 0-30-13.431-30-30v-40c0-16.569 13.431-30 30-30h40c16.569 0 30 13.431 30 30v40c0 16.569-13.431 30-30 30z" fill="white" fill-rule="nonzero" stroke="none" stroke-width="1" stroke-linecap="butt" stroke-linejoin="miter" stroke-miterlimit="10" stroke-dasharray="" stroke-dashoffset="0" font-family="none" font-weight="none" font-size="none" text-anchor="none" style="mix-blend-mode: normal"></path></g><g transform="matrix(1,0,0,1,18.058779268782835,18.05999671457624)"><svg viewBox="0 0 54.17633780634851 54.17390291476172" height="54.17390291476172" width="54.17633780634851"><g><svg xmlns="http://www.w3.org/2000/svg" xmlns:xlink="http://www.w3.org/1999/xlink" version="1.1" x="0" y="0" viewBox="5.5 5.502 89 88.99600000000001" enable-background="new 0 0 100 100" xml:space="preserve" height="54.17390291476172" width="54.17633780634851" class="icon-cg-0" data-fill-palette-color="quaternary" id="SvgjsSvg2179"><g fill="black"><path d="M50.001 14.146c-19.771 0-35.858 16.084-35.858 35.854S30.23 85.854 50.001 85.854c19.769 0 35.856-16.085 35.856-35.854S69.77 14.146 50.001 14.146M50.001 94.498C25.463 94.498 5.5 74.535 5.5 49.999S25.463 5.502 50.001 5.502c24.537 0 44.499 19.961 44.499 44.497S74.538 94.498 50.001 94.498" fill="black"></path></g><polygon points="50.841,59.557 28.415,38.984 34.258,32.615 49.163,46.286 63.979,23.526 71.225,28.242 " fill="black"></polygon></svg></g></svg></g></svg></g></svg></g></svg></g><defs><mask></mask></defs></svg><rect width="395.52" height="72.25137910796697" fill="black" stroke="none" visibility="hidden"></rect></g></mask><linearGradient x1="0" x2="1" y1="0.578" y2="0.595" id="f9013a53-c319-49b6-b4a6-d7cf6b71e524"><stop stop-color="#6ee2f5" offset="0"></stop><stop stop-color="#6454f0" offset="1"></stop></linearGradient><rect width="395.52" height="72.25137910796697" fill="url(#f9013a53-c319-49b6-b4a6-d7cf6b71e524)" mask="url(#b67c0b3b-5e2f-4ea0-8c4e-bcec82ce92bb)" data-fill-palette-color="accent"></rect></svg><rect width="395.52" height="72.25137910796697" fill="none" stroke="none" visibility="hidden"></rect></g></svg></g></svg>